<?xml version="1.0" encoding="utf-8"?>
<!-- Generator: Adobe Illustrator 28.3.0, SVG Export Plug-In . SVG Version: 6.00 Build 0)  -->
<svg version="1.1" id="Layer_1" xmlns="http://www.w3.org/2000/svg" xmlns:xlink="http://www.w3.org/1999/xlink" x="0px" y="0px"
	 viewBox="0 0 216 216" style="enable-background:new 0 0 216 216;" xml:space="preserve">
<style type="text/css">
	.st0{fill:none;stroke:#030121;stroke-width:8;stroke-miterlimit:10;}
	.st1{fill:none;stroke:#0E0E7A;stroke-width:8;stroke-miterlimit:10;}
	.st2{fill:none;stroke:#022DB5;stroke-width:8;stroke-miterlimit:10;}
	.st3{fill:none;stroke:#4254D3;stroke-width:8;stroke-miterlimit:10;}
</style>
<g>
	<path class="st0" d="M171.89,164.66c-13.49,12.15-31.35,19.55-50.93,19.55c-42.05,0-76.13-34.08-76.13-76.13
		s34.08-76.13,76.13-76.13c13.48,0,26.13,3.5,37.11,9.64"/>
	<path class="st1" d="M164.69,156.57c-11.59,10.46-26.93,16.84-43.73,16.84c-36.02,0-65.33-29.31-65.33-65.33
		c0-36.02,29.31-65.33,65.33-65.33c11.68,0,22.65,3.08,32.14,8.47"/>
	<path class="st2" d="M157.18,148.81c-9.64,8.58-22.33,13.8-36.22,13.8c-30.07,0-54.53-24.46-54.53-54.53
		c0-30.07,24.46-54.53,54.53-54.53c9.84,0,19.08,2.62,27.06,7.2"/>
	<path class="st3" d="M149.18,141.45c-7.62,6.46-17.48,10.35-28.22,10.35c-24.11,0-43.73-19.62-43.73-43.73
		c0-24.11,19.62-43.73,43.73-43.73c7.89,0,15.3,2.1,21.7,5.77"/>
</g>
</svg>
